<svg width="166.625px" height="63.2224853515625px" xmlns="http://www.w3.org/2000/svg" viewBox="166.6875 43.38875732421875 166.625 63.2224853515625" style="background: rgba(0, 0, 0, 0);" preserveAspectRatio="xMidYMid"><defs><linearGradient id="editing-gradow-gradient" x1="0" x2="1" y1="0.5" y2="0.5" gradientUnits="objectBoundingBox"><stop offset="0" stop-color="#f0f"></stop><stop offset="1" stop-color="#0ff"></stop></linearGradient><filter id="editing-gradow-filter" x="-100%" y="-100%" width="300%" height="300%"><feFlood flood-color="#fffcd9" result="flood"></feFlood><feComposite operator="in" in2="SourceAlpha" in="flood" result="shadow"></feComposite><feOffset dx="-4" dy="-13.8" in="SourceGraphic" result="offset-1"></feOffset><feOffset dx="4" dy="13.8" in="shadow" result="offset-2"></feOffset><feMerge><feMergeNode in="offset-2"></feMergeNode><feMergeNode in="offset-1"></feMergeNode></feMerge></filter></defs><g filter="url(#editing-gradow-filter)"><g transform="translate(196.28499951958656, 84.78499984741211)"><path d="M12.34 0L10.18-6.62L4.02-6.62L1.92 0L0.32 0L6.37-18.90L7.80-18.90L13.96 0L12.34 0ZM7.07-16.55L4.46-8.10L9.77-8.10L7.07-16.55ZM26.30-4.24L26.30-4.24Q26.30-2.86 25.73-1.92L25.73-1.92L25.73-1.92Q25.16-0.97 24.19-0.49L24.19-0.49L24.19-0.49Q23.33-0.05 22.45 0.14L22.45 0.14L22.45 0.14Q21.57 0.32 20.57 0.32L20.57 0.32L20.57 0.32Q19.57 0.32 17.82 0.14L17.82 0.14L16.34 0L16.34-18.90L17.85-18.90L17.85-12.80L17.85-12.80Q18.49-13.26 19.43-13.50L19.43-13.50L19.43-13.50Q20.36-13.74 21.36-13.74L21.36-13.74L21.36-13.74Q22.90-13.74 24.00-13.23L24.00-13.23L24.00-13.23Q26.30-12.18 26.30-9.34L26.30-9.34L26.30-4.24ZM24.81-9.26L24.81-9.26Q24.81-10.91 23.85-11.65L23.85-11.65L23.85-11.65Q22.90-12.39 21.38-12.39L21.38-12.39L21.38-12.39Q20.47-12.39 19.52-12.14L19.52-12.14L19.52-12.14Q18.58-11.88 17.85-11.47L17.85-11.47L17.85-1.30L17.85-1.30Q19.44-1.05 20.47-1.05L20.47-1.05L20.47-1.05Q24.81-1.05 24.81-4.21L24.81-4.21L24.81-9.26ZM38.58 0L38.58 0Q35.67 0.30 34.37 0.30L34.37 0.30L34.37 0.30Q31.54 0.30 29.86-0.76L29.86-0.76L29.86-0.76Q28.19-1.81 28.19-4.56L28.19-4.56L28.19-6.80L28.19-6.80Q28.19-9.48 30.05-10.39L30.05-10.39L30.05-10.39Q30.94-10.85 32.32-10.85L32.32-10.85L32.32-10.85Q33.59-10.85 34.88-10.44L34.88-10.44L34.88-10.44Q36.18-10.02 37.07-9.34L37.07-9.34L37.07-9.34Q37.07-10.83 36.21-11.70L36.21-11.70L36.21-11.70Q35.34-12.58 32.89-12.58L32.89-12.58L32.97-13.74L32.97-13.74Q35.56-13.74 36.79-12.92L36.79-12.92L36.79-12.92Q38.02-12.10 38.30-10.96L38.30-10.96L38.30-10.96Q38.58-9.83 38.58-8.05L38.58-8.05L38.58 0ZM37.07-8.18L37.07-8.18Q35.96-8.69 34.71-9.07L34.71-9.07L34.71-9.07Q33.45-9.45 32.40-9.45L32.40-9.45L32.40-9.45Q29.67-9.45 29.67-6.72L29.67-6.72L29.67-4.37L29.67-4.37Q29.67-2.62 30.89-1.82L30.89-1.82L30.89-1.82Q32.10-1.03 34.34-1.03L34.34-1.03L34.34-1.03Q35.51-1.03 37.07-1.24L37.07-1.24L37.07-8.18ZM41.96-3.43L41.96-3.43Q42.12-2.21 43.17-1.61L43.17-1.61L43.17-1.61Q44.23-1.00 45.52-1.00L45.52-1.00L45.52-1.00Q46.74-1.00 47.74-1.55L47.74-1.55L47.74-1.55Q48.73-2.11 48.73-3.35L48.73-3.35L48.73-3.35Q48.73-4.16 48.26-4.68L48.26-4.68L48.26-4.68Q47.79-5.21 47.09-5.54L47.09-5.54L47.09-5.54Q46.39-5.86 45.20-6.24L45.20-6.24L45.20-6.24Q43.88-6.67 43.04-7.05L43.04-7.05L43.04-7.05Q42.20-7.42 41.58-8.11L41.58-8.11L41.58-8.11Q40.96-8.80 40.85-9.86L40.85-9.86L40.82-10.18L40.82-10.18Q40.82-11.07 41.32-11.92L41.32-11.92L41.32-11.92Q41.82-12.77 42.86-13.31L42.86-13.31L42.86-13.31Q43.90-13.85 45.47-13.85L45.47-13.85L45.47-13.85Q46.33-13.85 46.99-13.68L46.99-13.68L46.99-13.68Q47.66-13.50 48.03-13.31L48.03-13.31L48.03-13.31Q48.41-13.12 48.49-13.07L48.49-13.07L47.98-11.83L47.98-11.83Q47.90-11.88 47.59-12.04L47.59-12.04L47.59-12.04Q47.28-12.20 46.71-12.37L46.71-12.37L46.71-12.37Q46.14-12.53 45.47-12.53L45.47-12.53L45.47-12.53Q44.17-12.53 43.25-11.92L43.25-11.92L43.25-11.92Q42.34-11.31 42.34-10.23L42.34-10.23L42.34-10.23Q42.34-9.21 43.17-8.67L43.17-8.67L43.17-8.67Q44.01-8.13 45.74-7.59L45.74-7.59L45.74-7.59Q47.20-7.10 48.09-6.67L48.09-6.67L48.09-6.67Q48.98-6.24 49.61-5.44L49.61-5.44L49.61-5.44Q50.25-4.64 50.25-3.38L50.25-3.38L50.25-3.38Q50.25-1.75 49.05-0.68L49.05-0.68L49.05-0.68Q47.84 0.40 45.52 0.40L45.52 0.40L45.52 0.40Q43.98 0.40 42.86-0.12L42.86-0.12L42.86-0.12Q41.74-0.65 41.16-1.51L41.16-1.51L41.16-1.51Q40.58-2.38 40.53-3.43L40.53-3.43L41.96-3.43ZM61.40 0L61.40-9.26L61.40-9.26Q61.40-10.91 60.44-11.65L60.44-11.65L60.44-11.65Q59.48-12.39 57.97-12.39L57.97-12.39L57.97-12.39Q57.05-12.39 56.11-12.14L56.11-12.14L56.11-12.14Q55.16-11.88 54.43-11.47L54.43-11.47L54.43 0L52.92 0L52.92-18.90L54.43-18.90L54.43-12.80L54.43-12.80Q55.11-13.26 56.05-13.51L56.05-13.51L56.05-13.51Q57.00-13.77 58.02-13.77L58.02-13.77L58.02-13.77Q59.43-13.77 60.59-13.26L60.59-13.26L60.59-13.26Q61.67-12.77 62.28-11.80L62.28-11.80L62.28-11.80Q62.88-10.83 62.88-9.34L62.88-9.34L62.88 0L61.40 0ZM67.53-17.36L67.53-17.36Q67.18-17.36 66.89-17.64L66.89-17.64L66.89-17.64Q66.61-17.93 66.61-18.28L66.61-18.28L66.61-18.28Q66.61-18.63 66.88-18.90L66.88-18.90L66.88-18.90Q67.15-19.17 67.53-19.17L67.53-19.17L67.53-19.17Q67.91-19.17 68.16-18.91L68.16-18.91L68.16-18.91Q68.42-18.66 68.42-18.28L68.42-18.28L68.42-18.28Q68.42-17.90 68.15-17.63L68.15-17.63L68.15-17.63Q67.88-17.36 67.53-17.36L67.53-17.36ZM66.74 0L66.74-13.53L68.26-13.53L68.26 0L66.74 0ZM72.68-9.34L72.68-9.34Q72.68-12.18 74.98-13.23L74.98-13.23L74.98-13.23Q76.09-13.74 77.63-13.74L77.63-13.74L77.63-13.74Q78.62-13.74 79.56-13.50L79.56-13.50L79.56-13.50Q80.49-13.26 81.14-12.80L81.14-12.80L81.14-18.90L82.65-18.90L82.65 0L81.16 0.14L81.16 0.14Q79.41 0.32 78.41 0.32L78.41 0.32L78.41 0.32Q77.41 0.32 76.53 0.14L76.53 0.14L76.53 0.14Q75.65-0.05 74.79-0.49L74.79-0.49L74.79-0.49Q73.82-0.97 73.25-1.92L73.25-1.92L73.25-1.92Q72.68-2.86 72.68-4.24L72.68-4.24L72.68-9.34ZM81.14-11.47L81.14-11.47Q80.41-11.88 79.46-12.14L79.46-12.14L79.46-12.14Q78.52-12.39 77.60-12.39L77.60-12.39L77.60-12.39Q76.09-12.39 75.13-11.65L75.13-11.65L75.13-11.65Q74.17-10.91 74.17-9.26L74.17-9.26L74.17-4.21L74.17-4.21Q74.17-1.05 78.52-1.05L78.52-1.05L78.52-1.05Q79.54-1.05 81.14-1.30L81.14-1.30L81.14-11.47ZM85.64 0L85.64-1.35L93.07-12.15L85.89-12.15L85.89-13.53L94.99-13.53L94.99-12.18L87.51-1.38L95.55-1.38L95.55 0L85.64 0ZM106.43-0.94L106.43-0.94Q105.46-0.32 104.22 0L104.22 0L104.22 0Q102.98 0.32 101.74 0.32L101.74 0.32L101.74 0.32Q99.74 0.32 98.56-0.66L98.56-0.66L98.56-0.66Q97.39-1.65 97.39-3.62L97.39-3.62L97.39-9.15L97.39-9.15Q97.39-11.34 98.75-12.55L98.75-12.55L98.75-12.55Q100.12-13.77 102.36-13.77L102.36-13.77L102.36-13.77Q104.60-13.77 105.85-12.57L105.85-12.57L105.85-12.57Q107.11-11.37 107.11-9.23L107.11-9.23L107.11-5.72L98.90-5.26L98.90-3.62L98.90-3.62Q98.90-2.32 99.74-1.67L99.74-1.67L99.74-1.67Q100.58-1.03 101.92-1.03L101.92-1.03L101.92-1.03Q103.81-1.03 105.84-2.11L105.84-2.11L106.43-0.94ZM105.60-9.42L105.60-9.42Q105.60-11.10 104.54-11.79L104.54-11.79L104.54-11.79Q103.49-12.47 102.33-12.47L102.33-12.47L102.33-12.47Q100.84-12.47 99.87-11.66L99.87-11.66L99.87-11.66Q98.90-10.85 98.90-9.13L98.90-9.13L98.90-6.75L105.60-7.07L105.60-9.42Z" fill="url(#editing-gradow-gradient)"></path></g></g><style>text {
  font-size: 14px;
  font-family: Arial Black;
  dominant-baseline: central;
  text-anchor: middle;
}</style></svg>